<svg id="svg" version="1.1" xmlns="http://www.w3.org/2000/svg" xmlns:xlink="http://www.w3.org/1999/xlink" width="400" height="400" viewBox="0, 0, 400,400"><g id="svgg"><path id="path0" d="M197.600 59.161 C 195.212 59.501,193.256 60.365,191.440 61.881 C 189.690 63.342,186.005 65.085,182.773 65.981 C 179.579 66.866,178.669 67.507,177.581 69.638 C 176.795 71.178,174.289 73.600,173.482 73.600 C 172.084 73.600,169.600 77.774,169.600 80.123 C 169.600 80.777,167.175 85.306,165.597 87.600 C 163.234 91.035,162.998 92.151,163.016 99.800 C 163.035 107.474,163.359 109.098,165.401 111.775 C 167.261 114.211,169.296 118.375,170.358 121.916 C 171.084 124.337,171.450 124.959,172.516 125.581 C 176.189 127.724,176.808 128.248,177.786 130.045 C 179.049 132.366,180.392 133.488,182.341 133.851 C 185.371 134.417,191.844 136.855,194.379 138.387 C 199.653 141.574,208.864 141.562,214.056 138.362 C 215.492 137.477,218.604 136.162,221.200 135.344 C 229.396 132.760,228.981 132.968,230.116 130.884 C 231.367 128.585,232.628 127.358,235.114 126.017 C 236.927 125.039,237.042 124.869,238.092 121.600 C 239.480 117.274,240.739 114.693,242.789 111.968 C 246.553 106.966,246.643 93.107,242.946 87.896 C 241.533 85.904,238.800 80.782,238.800 80.126 C 238.800 77.775,236.317 73.600,234.918 73.600 C 234.111 73.600,231.605 71.178,230.819 69.638 C 229.731 67.507,228.821 66.866,225.627 65.981 C 222.337 65.069,218.693 63.332,216.892 61.816 C 213.862 59.266,205.217 58.077,197.600 59.161 M194.200 170.432 C 184.863 170.767,181.274 171.483,177.938 173.679 C 175.106 175.543,172.209 176.576,167.089 177.547 C 159.456 178.993,157.242 179.828,155.200 182.030 C 153.481 183.884,152.224 184.595,147.841 186.196 C 146.605 186.647,144.834 187.875,143.041 189.524 C 140.057 192.269,136.860 194.509,134.191 195.724 C 133.045 196.246,132.152 197.142,131.000 198.924 C 129.836 200.725,128.723 201.836,126.915 203.000 C 124.788 204.370,124.251 204.971,123.186 207.180 C 121.771 210.113,120.418 211.968,117.192 215.400 C 115.804 216.877,114.679 218.531,114.268 219.700 C 113.901 220.745,113.304 222.440,112.941 223.468 C 112.564 224.537,111.379 226.318,110.169 227.633 C 107.888 230.115,106.389 233.819,105.813 238.400 C 105.233 243.015,103.858 247.913,102.165 251.400 C 97.659 260.678,97.197 287.169,101.433 293.410 C 103.398 296.306,105.572 301.916,106.234 305.800 C 106.700 308.530,107.385 309.396,110.107 310.697 C 111.510 311.366,113.094 312.471,113.628 313.151 C 114.163 313.831,114.996 314.902,115.479 315.531 C 117.880 318.658,130.215 318.261,135.124 314.900 C 138.570 312.541,140.562 311.723,145.600 310.597 C 150.935 309.404,152.047 308.921,155.136 306.452 C 157.371 304.665,161.144 302.800,162.523 302.800 C 165.587 302.800,172.540 300.378,174.358 298.678 C 178.672 294.643,191.207 293.126,212.800 294.025 C 227.522 294.639,230.577 295.331,234.262 298.888 C 235.789 300.362,243.028 302.800,245.877 302.800 C 247.256 302.800,251.029 304.665,253.264 306.452 C 256.353 308.921,257.465 309.404,262.800 310.597 C 267.838 311.723,269.830 312.541,273.276 314.900 C 278.185 318.261,290.520 318.658,292.921 315.531 C 293.404 314.902,294.234 313.834,294.764 313.159 C 295.295 312.484,296.801 311.412,298.112 310.777 C 301.037 309.360,301.404 308.889,302.174 305.552 C 303.161 301.280,305.158 296.042,306.598 293.949 C 311.272 287.154,310.950 260.683,306.074 250.989 C 304.516 247.891,303.169 243.029,302.587 238.400 C 302.011 233.819,300.512 230.115,298.231 227.633 C 297.021 226.318,295.836 224.537,295.459 223.468 C 295.096 222.440,294.500 220.751,294.134 219.714 C 293.716 218.529,292.557 216.856,291.018 215.214 C 288.088 212.088,286.484 209.787,285.096 206.721 C 284.215 204.777,283.738 204.259,281.838 203.187 C 279.463 201.847,278.181 200.543,276.772 198.036 C 276.191 197.002,275.340 196.224,274.256 195.737 C 271.566 194.526,268.374 192.297,265.359 189.524 C 263.566 187.875,261.795 186.647,260.559 186.196 C 256.176 184.595,254.919 183.884,253.200 182.030 C 251.158 179.828,248.944 178.993,241.311 177.547 C 236.191 176.576,233.294 175.543,230.462 173.679 C 227.914 172.002,223.640 170.875,218.800 170.604 C 211.953 170.221,202.005 170.152,194.200 170.432 " stroke="none" fill="#f9fbfb" fill-rule="evenodd"></path><path id="path1" d="M74.076 3.009 C 74.350 3.283,325.248 3.285,325.523 3.011 C 325.639 2.895,269.063 2.800,199.800 2.800 C 130.537 2.800,73.961 2.894,74.076 3.009 M60.400 3.592 C 61.390 3.753,63.100 3.753,64.200 3.592 C 65.862 3.349,65.557 3.300,62.400 3.300 C 59.426 3.300,58.991 3.364,60.400 3.592 M336.200 3.592 C 337.300 3.753,339.010 3.753,340.000 3.592 C 341.409 3.364,340.974 3.300,338.000 3.300 C 334.843 3.300,334.538 3.349,336.200 3.592 M54.800 3.989 C 54.071 4.214,54.367 4.285,55.897 4.249 C 57.050 4.222,57.995 4.065,57.997 3.900 C 58.001 3.525,56.131 3.577,54.800 3.989 M342.400 4.024 C 342.400 4.257,342.587 4.332,342.815 4.191 C 343.596 3.708,346.428 4.475,347.714 5.518 L 349.000 6.562 348.030 5.480 C 346.697 3.995,342.400 2.883,342.400 4.024 M49.358 5.632 C 47.655 6.126,46.084 7.801,45.586 9.654 C 45.266 10.841,44.964 11.207,44.285 11.228 C 43.439 11.255,43.435 11.270,44.200 11.578 C 45.263 12.006,45.455 11.851,46.032 10.102 C 46.658 8.205,48.400 6.460,49.982 6.144 C 50.661 6.008,51.314 5.740,51.432 5.548 C 51.694 5.125,51.012 5.153,49.358 5.632 M348.962 5.539 C 349.088 5.743,349.833 6.030,350.617 6.177 C 351.401 6.324,352.144 6.709,352.268 7.033 C 352.392 7.357,352.841 7.808,353.265 8.035 C 354.499 8.695,353.323 7.041,352.033 6.301 C 350.729 5.553,348.653 5.038,348.962 5.539 M354.977 11.562 C 355.100 11.762,355.561 11.831,356.000 11.716 C 357.101 11.428,357.002 11.200,355.776 11.200 C 355.213 11.200,354.854 11.363,354.977 11.562 M39.200 12.020 C 38.526 12.249,38.851 12.284,40.200 12.128 C 41.300 12.001,42.275 11.831,42.367 11.749 C 42.682 11.468,40.199 11.680,39.200 12.020 M358.002 11.900 C 358.004 12.065,358.811 12.222,359.795 12.249 C 360.780 12.276,362.084 12.623,362.693 13.019 C 363.634 13.631,363.718 13.640,363.257 13.077 C 362.410 12.043,357.996 11.055,358.002 11.900 M364.047 15.386 C 364.278 16.221,364.378 17.240,364.271 17.652 C 364.163 18.063,364.263 18.400,364.492 18.400 C 364.996 18.400,364.581 14.821,364.010 14.250 C 363.785 14.025,363.800 14.493,364.047 15.386 M35.869 15.556 C 35.721 16.295,35.620 17.282,35.644 17.750 C 35.668 18.218,35.847 17.790,36.042 16.800 C 36.237 15.810,36.338 14.823,36.267 14.606 C 36.196 14.390,36.017 14.817,35.869 15.556 M33.800 19.167 C 32.207 19.418,32.205 19.421,33.400 19.681 C 34.200 19.855,34.795 19.752,35.186 19.371 C 35.508 19.057,35.688 18.826,35.586 18.857 C 35.484 18.888,34.680 19.027,33.800 19.167 M365.309 19.481 C 365.651 19.822,366.191 19.877,367.005 19.652 C 368.180 19.328,368.172 19.319,366.504 19.151 C 365.146 19.014,364.908 19.079,365.309 19.481 M29.790 20.016 C 29.621 20.289,29.923 20.338,30.666 20.160 C 32.199 19.792,32.344 19.600,31.090 19.600 C 30.517 19.600,29.932 19.787,29.790 20.016 M369.730 20.181 C 370.571 20.481,371.306 20.788,371.362 20.863 C 371.419 20.938,371.766 21.445,372.133 21.989 C 372.500 22.533,372.800 22.772,372.800 22.520 C 372.800 21.607,370.357 19.600,369.269 19.618 C 368.322 19.633,368.374 19.697,369.730 20.181 M25.569 23.310 C 24.826 23.810,23.824 24.845,23.342 25.610 C 22.859 26.374,21.962 27.491,21.349 28.090 L 20.233 29.181 21.669 28.490 C 22.460 28.111,23.026 27.665,22.929 27.500 C 22.832 27.335,22.910 27.200,23.102 27.200 C 23.295 27.200,23.739 26.599,24.089 25.864 C 24.462 25.082,25.240 24.315,25.963 24.015 C 26.643 23.733,27.200 23.255,27.200 22.951 C 27.200 22.232,27.153 22.242,25.569 23.310 M373.200 23.151 C 373.200 23.345,373.757 23.733,374.437 24.015 C 375.160 24.315,375.938 25.082,376.311 25.864 C 376.661 26.599,377.099 27.200,377.284 27.200 C 377.887 27.200,376.459 24.921,375.184 23.848 C 373.910 22.776,373.200 22.527,373.200 23.151 M378.109 28.156 C 378.720 28.427,379.080 28.801,378.909 28.988 C 378.739 29.175,378.825 29.199,379.100 29.041 C 379.550 28.782,379.784 29.235,379.647 30.100 C 379.621 30.265,379.801 30.400,380.047 30.400 C 380.296 30.400,380.401 30.753,380.284 31.200 C 380.169 31.640,380.238 32.000,380.437 32.000 C 380.637 32.000,380.800 31.569,380.800 31.042 C 380.800 29.869,378.753 27.588,377.740 27.632 C 377.195 27.656,377.292 27.794,378.109 28.156 M19.867 29.867 C 19.720 30.013,19.615 30.598,19.634 31.167 C 19.668 32.181,19.675 32.179,20.021 31.020 C 20.385 29.803,20.331 29.402,19.867 29.867 M19.151 33.900 C 19.056 34.835,19.099 35.600,19.247 35.600 C 19.754 35.600,19.948 34.465,19.636 33.334 C 19.338 32.259,19.313 32.288,19.151 33.900 M380.688 33.475 C 380.474 34.595,380.694 35.600,381.153 35.600 C 381.301 35.600,381.352 34.880,381.269 34.000 C 381.089 32.121,380.968 32.011,380.688 33.475 M15.000 36.020 C 14.461 36.265,14.854 36.305,16.200 36.141 C 17.300 36.007,18.275 35.831,18.367 35.749 C 18.717 35.436,15.761 35.674,15.000 36.020 M382.002 35.900 C 382.004 36.065,382.811 36.222,383.795 36.249 C 384.780 36.276,386.061 36.610,386.642 36.991 C 387.223 37.371,387.564 37.466,387.400 37.201 C 386.729 36.115,381.995 34.974,382.002 35.900 M387.800 39.020 C 387.800 39.559,387.955 40.000,388.145 40.000 C 388.335 40.000,388.412 40.540,388.315 41.200 C 388.218 41.860,388.311 42.400,388.521 42.400 C 388.739 42.400,388.815 41.611,388.697 40.565 C 388.473 38.575,387.800 37.416,387.800 39.020 M11.876 39.210 C 11.730 39.755,11.628 40.740,11.649 41.400 C 11.680 42.357,11.759 42.236,12.042 40.800 C 12.429 38.833,12.302 37.617,11.876 39.210 M11.200 43.985 C 11.200 45.021,11.007 45.221,9.654 45.586 C 7.106 46.271,4.625 49.791,5.322 51.730 C 5.415 51.988,5.710 51.407,5.978 50.437 C 6.563 48.319,8.081 46.699,10.108 46.030 C 11.422 45.597,12.541 42.800,11.400 42.800 C 11.290 42.800,11.200 43.333,11.200 43.985 M388.853 44.084 C 388.803 45.487,388.888 45.594,390.424 46.054 C 391.317 46.322,392.212 46.848,392.412 47.223 C 392.613 47.599,393.078 48.021,393.445 48.162 C 394.032 48.387,394.046 48.332,393.557 47.709 C 392.660 46.567,391.879 46.031,390.600 45.681 C 389.643 45.418,389.350 45.074,389.153 43.976 L 388.905 42.600 388.853 44.084 M395.759 53.800 C 395.834 54.460,395.998 55.270,396.124 55.600 C 396.250 55.930,396.433 56.560,396.530 57.000 C 396.643 57.509,396.724 57.344,396.754 56.546 C 396.779 55.856,396.535 54.686,396.212 53.946 L 395.623 52.600 395.759 53.800 M195.340 54.028 C 187.365 54.462,185.189 55.137,182.400 58.039 C 180.715 59.793,179.545 60.590,177.400 61.446 C 173.174 63.132,167.759 68.476,165.517 73.175 C 164.366 75.585,163.342 77.069,161.992 78.283 C 158.586 81.346,157.908 84.917,157.908 99.800 C 157.908 115.028,158.832 119.408,162.593 121.995 C 164.007 122.968,164.517 123.684,165.370 125.893 C 166.632 129.159,167.135 129.805,170.100 131.956 C 171.365 132.874,172.400 133.799,172.400 134.011 C 172.400 134.950,175.374 137.597,177.125 138.216 C 181.029 139.597,181.932 140.122,183.368 141.840 C 186.498 145.583,189.443 146.200,204.200 146.200 C 218.957 146.200,221.902 145.583,225.032 141.840 C 226.469 140.120,227.367 139.599,231.293 138.209 C 233.018 137.599,236.400 134.523,236.400 133.565 C 236.400 133.388,237.383 132.590,238.585 131.792 C 240.995 130.193,241.912 128.941,243.198 125.499 C 243.875 123.689,244.429 122.943,245.799 122.001 C 249.569 119.407,250.492 115.038,250.492 99.800 C 250.492 84.917,249.814 81.346,246.408 78.283 C 245.058 77.069,244.034 75.585,242.883 73.175 C 240.641 68.476,235.226 63.132,231.000 61.446 C 228.855 60.590,227.685 59.793,226.000 58.039 C 223.129 55.052,221.273 54.518,211.950 54.001 C 204.324 53.578,203.587 53.579,195.340 54.028 M3.873 54.553 C 3.723 54.945,3.618 55.836,3.640 56.533 C 3.679 57.767,3.690 57.759,4.049 56.227 C 4.445 54.537,4.324 53.379,3.873 54.553 M215.899 56.558 C 219.766 57.399,221.254 58.063,223.508 59.950 C 224.549 60.822,226.774 62.184,228.453 62.976 C 230.748 64.060,232.147 65.085,234.094 67.109 C 235.519 68.589,237.446 70.487,238.377 71.327 C 239.465 72.309,240.540 73.881,241.383 75.727 C 242.105 77.307,243.438 79.495,244.344 80.588 C 247.852 84.819,248.537 87.956,248.538 99.800 C 248.540 111.292,247.696 115.065,244.199 119.200 C 243.362 120.190,242.080 122.302,241.351 123.894 C 240.504 125.743,239.422 127.332,238.354 128.294 C 237.435 129.122,235.225 131.246,233.442 133.013 C 230.708 135.723,229.743 136.404,227.285 137.355 C 225.681 137.975,223.341 139.243,222.085 140.172 C 214.306 145.924,194.094 145.924,186.315 140.172 C 185.059 139.243,182.719 137.975,181.115 137.355 C 178.631 136.393,177.689 135.722,174.742 132.813 C 172.839 130.936,170.622 128.797,169.814 128.061 C 168.967 127.289,167.791 125.510,167.039 123.861 C 166.322 122.287,164.958 120.103,164.008 119.007 C 160.607 115.082,159.857 111.611,159.857 99.800 C 159.857 87.966,160.544 84.824,164.056 80.588 C 164.962 79.495,166.295 77.307,167.017 75.727 C 167.860 73.881,168.935 72.309,170.023 71.327 C 170.954 70.487,172.881 68.589,174.306 67.109 C 176.253 65.085,177.652 64.060,179.947 62.976 C 181.626 62.184,183.869 60.807,184.932 59.917 C 187.687 57.609,190.101 56.817,197.400 55.828 C 200.229 55.445,213.122 55.953,215.899 56.558 M3.294 62.000 C 3.299 65.444,3.329 65.596,3.616 63.622 C 3.789 62.424,3.787 60.714,3.610 59.822 C 3.357 58.548,3.289 59.016,3.294 62.000 M396.718 59.900 C 396.615 60.725,396.656 62.390,396.809 63.600 C 397.062 65.600,397.092 65.464,397.144 62.100 C 397.203 58.226,397.035 57.360,396.718 59.900 M2.800 199.800 C 2.800 269.283,2.896 326.037,3.014 325.920 C 3.290 325.644,3.284 73.951,3.008 73.675 C 2.894 73.560,2.800 130.317,2.800 199.800 M397.195 74.700 C 397.071 101.141,397.245 326.579,397.390 326.723 C 397.506 326.839,397.600 269.933,397.600 200.267 C 397.600 130.600,397.510 73.600,397.400 73.600 C 397.290 73.600,397.198 74.095,397.195 74.700 M198.000 164.818 C 195.910 164.984,190.060 165.414,185.000 165.772 C 170.930 166.768,168.368 167.352,164.978 170.336 C 163.118 171.973,159.750 173.325,154.800 174.421 C 151.839 175.077,149.856 176.128,147.601 178.237 C 146.387 179.374,144.067 180.779,141.077 182.189 C 136.705 184.251,136.349 184.509,134.918 186.655 C 133.670 188.528,132.904 189.187,130.606 190.366 C 128.808 191.288,127.524 192.259,127.006 193.087 C 126.563 193.795,125.837 194.965,125.393 195.687 C 124.949 196.409,123.759 197.450,122.749 198.000 C 120.036 199.476,119.573 199.963,118.371 202.600 C 117.216 205.131,116.337 206.110,113.919 207.556 C 112.424 208.450,112.194 208.834,109.228 215.377 C 108.506 216.971,107.135 219.037,106.012 220.224 C 103.771 222.594,103.143 223.905,102.185 228.208 C 100.931 233.847,100.125 235.964,98.587 237.667 C 95.294 241.312,94.564 244.907,93.972 260.400 C 92.884 288.855,94.319 302.738,98.655 305.687 C 100.025 306.619,100.714 307.765,101.612 310.600 C 102.598 313.714,108.369 319.724,111.852 321.264 C 114.415 322.398,121.990 322.853,130.618 322.391 C 140.632 321.856,144.281 320.805,146.577 317.794 C 147.758 316.247,148.433 315.966,154.761 314.392 C 160.475 312.970,161.464 312.524,164.200 310.133 C 166.676 307.969,168.943 307.101,174.914 306.032 C 180.562 305.021,183.490 303.975,186.405 301.926 C 192.790 297.439,215.707 297.497,222.116 302.017 C 224.992 304.045,227.683 304.991,233.575 306.047 C 239.402 307.092,241.756 307.988,244.000 310.020 C 246.546 312.324,248.025 312.995,253.646 314.393 C 259.966 315.966,260.643 316.247,261.823 317.794 C 264.119 320.805,267.768 321.856,277.782 322.391 C 286.410 322.853,293.985 322.398,296.548 321.264 C 300.031 319.724,305.802 313.714,306.788 310.600 C 307.686 307.765,308.375 306.619,309.745 305.687 C 314.080 302.738,315.541 288.551,314.429 260.200 C 313.829 244.894,313.093 241.297,309.813 237.667 C 308.275 235.964,307.469 233.847,306.215 228.208 C 305.257 223.905,304.629 222.594,302.388 220.224 C 301.265 219.037,299.894 216.971,299.172 215.377 C 296.206 208.833,295.976 208.450,294.481 207.557 C 292.061 206.112,290.858 204.780,290.210 202.831 C 289.448 200.536,287.980 198.923,285.759 197.941 C 284.017 197.170,282.400 195.537,282.400 194.547 C 282.400 193.578,279.589 190.858,278.074 190.362 C 275.798 189.616,274.855 188.848,273.375 186.534 C 272.097 184.537,271.710 184.258,267.347 182.200 C 264.336 180.780,262.016 179.376,260.799 178.237 C 258.544 176.128,256.561 175.077,253.600 174.421 C 248.650 173.325,245.282 171.973,243.422 170.336 C 240.051 167.368,237.414 166.760,223.800 165.810 C 218.960 165.472,212.750 165.021,210.000 164.807 C 204.483 164.378,203.531 164.379,198.000 164.818 M215.838 167.217 C 229.426 168.107,234.490 169.130,239.446 171.986 C 241.191 172.992,244.179 174.141,247.600 175.123 C 253.728 176.882,255.687 177.779,257.400 179.609 C 258.096 180.352,260.664 181.885,263.516 183.260 C 267.575 185.216,268.884 186.079,271.027 188.212 C 272.455 189.633,274.314 191.148,275.158 191.579 C 277.301 192.672,279.019 194.193,280.434 196.249 C 281.099 197.216,282.668 198.760,283.921 199.681 C 286.584 201.637,286.818 201.898,288.498 204.782 C 289.197 205.982,290.864 208.142,292.201 209.582 C 295.163 212.770,295.498 213.293,297.374 217.660 C 298.236 219.666,299.629 222.016,300.693 223.259 C 302.991 225.943,303.641 227.410,305.183 233.400 C 305.959 236.412,307.155 239.690,308.395 242.200 C 312.052 249.605,312.587 253.607,312.587 273.600 C 312.588 292.695,311.930 297.175,308.398 302.107 C 307.509 303.349,306.135 305.910,305.344 307.799 C 304.130 310.698,303.562 311.526,301.694 313.116 C 300.477 314.152,298.833 315.693,298.041 316.540 C 292.595 322.363,274.286 322.380,265.556 316.571 C 263.481 315.190,261.267 314.105,259.450 313.578 C 253.474 311.846,250.546 310.733,249.000 309.603 C 245.413 306.981,243.748 306.239,238.072 304.730 C 234.842 303.871,231.210 302.630,230.000 301.970 C 223.416 298.384,221.210 297.813,211.267 297.124 C 197.224 296.151,187.409 297.416,179.814 301.180 C 176.393 302.875,173.561 303.932,170.025 304.835 C 163.918 306.392,163.211 306.690,160.200 308.972 C 157.857 310.748,155.777 311.600,148.950 313.578 C 147.133 314.105,144.919 315.190,142.844 316.571 C 134.299 322.258,115.332 322.351,110.602 316.729 C 110.006 316.021,108.722 314.876,107.748 314.183 C 105.502 312.586,104.338 311.003,102.956 307.661 C 102.350 306.197,101.273 304.166,100.562 303.148 C 96.319 297.067,95.308 289.953,95.735 269.200 C 96.078 252.584,96.643 249.007,100.005 242.200 C 101.245 239.690,102.441 236.412,103.217 233.400 C 104.759 227.410,105.409 225.943,107.707 223.259 C 108.771 222.016,110.164 219.666,111.026 217.660 C 112.902 213.293,113.237 212.770,116.199 209.582 C 117.536 208.142,119.201 205.954,119.898 204.720 C 120.594 203.485,121.925 201.873,122.855 201.137 C 125.009 199.432,127.432 197.009,129.137 194.855 C 129.873 193.925,131.474 192.601,132.694 191.912 C 133.915 191.223,136.051 189.528,137.441 188.144 C 139.508 186.088,140.865 185.197,144.884 183.260 C 147.736 181.885,150.304 180.352,151.000 179.609 C 152.713 177.779,154.672 176.882,160.800 175.123 C 164.221 174.141,167.209 172.992,168.954 171.986 C 176.205 167.807,195.257 165.869,215.838 167.217 M3.294 338.400 C 3.289 341.384,3.357 341.852,3.610 340.578 C 3.787 339.686,3.789 337.976,3.616 336.778 C 3.329 334.804,3.299 334.956,3.294 338.400 M396.715 337.017 C 396.614 338.236,396.661 339.901,396.820 340.717 C 397.031 341.805,397.120 341.216,397.154 338.500 C 397.205 334.363,396.994 333.650,396.715 337.017 M3.646 343.854 C 3.621 344.544,3.865 345.714,4.188 346.454 L 4.777 347.800 4.641 346.600 C 4.566 345.940,4.402 345.130,4.276 344.800 C 4.150 344.470,3.967 343.840,3.870 343.400 C 3.757 342.891,3.676 343.056,3.646 343.854 M396.091 345.070 C 395.810 346.428,395.360 347.629,395.091 347.738 C 394.706 347.894,394.707 347.944,395.095 347.968 C 395.787 348.013,396.861 345.260,396.718 343.807 C 396.626 342.868,396.487 343.149,396.091 345.070 M5.411 349.174 C 5.597 351.050,6.516 352.830,7.670 353.551 C 8.378 353.993,8.408 353.963,8.010 353.218 C 7.769 352.768,7.394 352.400,7.176 352.400 C 6.702 352.400,6.031 350.748,5.856 349.149 C 5.787 348.516,5.621 347.888,5.488 347.754 C 5.354 347.621,5.320 348.260,5.411 349.174 M393.300 350.568 C 392.638 351.931,391.956 352.616,390.512 353.368 C 389.460 353.915,388.810 354.371,389.067 354.381 C 389.324 354.392,389.864 354.507,390.267 354.638 C 390.827 354.819,390.869 354.782,390.447 354.481 C 390.004 354.165,390.065 354.033,390.760 353.813 C 391.236 353.662,392.056 353.108,392.582 352.582 C 393.108 352.056,393.662 351.236,393.813 350.760 C 394.028 350.081,394.163 350.014,394.438 350.447 C 394.851 351.100,394.865 350.507,394.460 349.482 C 394.231 348.902,394.009 349.110,393.300 350.568 M11.301 356.200 C 11.305 357.080,11.387 357.393,11.483 356.895 C 11.579 356.398,11.575 355.678,11.475 355.295 C 11.375 354.913,11.296 355.320,11.301 356.200 M388.893 356.400 C 388.893 357.170,388.975 357.485,389.076 357.100 C 389.176 356.715,389.176 356.085,389.076 355.700 C 388.975 355.315,388.893 355.630,388.893 356.400 M11.703 359.835 C 11.817 360.844,12.104 361.864,12.341 362.101 C 12.649 362.409,12.652 362.099,12.353 361.014 C 12.122 360.179,12.022 359.160,12.129 358.748 C 12.237 358.337,12.139 358.000,11.911 358.000 C 11.655 358.000,11.575 358.702,11.703 359.835 M388.315 359.200 C 388.412 359.860,388.335 360.400,388.145 360.400 C 387.955 360.400,387.800 360.841,387.800 361.380 C 387.800 362.984,388.473 361.825,388.697 359.835 C 388.815 358.789,388.739 358.000,388.521 358.000 C 388.311 358.000,388.218 358.540,388.315 359.200 M13.005 363.208 C 13.687 364.311,18.400 365.413,18.400 364.469 C 18.400 364.287,17.860 364.218,17.200 364.315 C 16.449 364.425,16.000 364.315,16.000 364.022 C 16.000 363.764,15.825 363.661,15.612 363.793 C 15.398 363.925,14.658 363.740,13.968 363.383 C 13.235 363.004,12.834 362.931,13.005 363.208 M386.291 363.434 C 385.680 363.765,385.005 363.927,384.791 363.794 C 384.576 363.661,384.400 363.764,384.400 364.022 C 384.400 364.315,383.951 364.425,383.200 364.315 C 382.540 364.218,382.000 364.287,382.000 364.469 C 382.000 365.394,386.709 364.318,387.375 363.241 C 387.718 362.686,387.646 362.699,386.291 363.434 M19.156 366.500 C 19.305 367.935,19.373 368.044,19.594 367.200 C 19.872 366.131,19.678 364.800,19.243 364.800 C 19.098 364.800,19.059 365.565,19.156 366.500 M380.719 365.500 C 380.624 365.885,380.663 366.650,380.806 367.200 C 381.027 368.044,381.095 367.935,381.244 366.500 C 381.419 364.824,381.058 364.137,380.719 365.500 M19.634 369.276 C 19.611 370.022,20.123 370.907,21.300 372.157 C 22.235 373.149,23.422 374.514,23.938 375.190 C 24.900 376.449,27.200 377.908,27.200 377.259 C 27.200 377.060,26.652 376.670,25.981 376.392 C 25.311 376.115,24.492 375.364,24.161 374.725 C 23.341 373.138,22.323 372.000,21.725 372.000 C 21.190 372.000,20.478 370.868,19.979 369.223 L 19.669 368.200 19.634 369.276 M380.284 369.200 C 380.401 369.647,380.296 370.000,380.047 370.000 C 379.801 370.000,379.621 370.135,379.647 370.300 C 379.780 371.139,379.551 371.617,379.138 371.362 C 378.831 371.172,378.786 371.254,379.004 371.606 C 379.238 371.985,379.151 372.067,378.699 371.893 C 378.335 371.754,377.973 371.894,377.846 372.225 C 377.467 373.213,378.428 372.855,379.640 371.558 C 380.732 370.389,381.234 368.400,380.437 368.400 C 380.238 368.400,380.169 368.760,380.284 369.200 M374.074 374.282 C 373.564 374.831,373.230 375.363,373.331 375.464 C 373.513 375.647,375.600 373.732,375.600 373.382 C 375.600 372.960,374.938 373.351,374.074 374.282 M29.800 380.400 C 29.936 380.620,30.442 380.787,30.924 380.772 C 31.769 380.745,31.771 380.731,31.000 380.400 C 29.899 379.927,29.508 379.927,29.800 380.400 M369.400 380.400 C 368.629 380.731,368.631 380.745,369.476 380.772 C 369.958 380.787,370.464 380.620,370.600 380.400 C 370.892 379.927,370.501 379.927,369.400 380.400 M32.800 380.776 C 31.966 381.022,32.115 381.098,33.700 381.238 C 34.745 381.330,35.600 381.269,35.600 381.103 C 35.600 380.936,35.435 380.800,35.233 380.800 C 35.031 380.800,34.626 380.728,34.333 380.641 C 34.040 380.553,33.350 380.614,32.800 380.776 M365.500 380.686 C 364.110 381.029,364.841 381.403,366.624 381.261 C 367.628 381.181,368.393 381.070,368.324 381.014 C 368.000 380.750,366.124 380.532,365.500 380.686 M35.703 383.835 C 35.817 384.844,36.104 385.864,36.341 386.101 C 36.649 386.409,36.652 386.099,36.353 385.014 C 36.122 384.179,36.022 383.160,36.129 382.748 C 36.237 382.337,36.139 382.000,35.911 382.000 C 35.655 382.000,35.575 382.702,35.703 383.835 M364.315 383.200 C 364.412 383.860,364.335 384.400,364.145 384.400 C 363.955 384.400,363.800 384.841,363.800 385.380 C 363.800 386.984,364.473 385.825,364.697 383.835 C 364.815 382.789,364.739 382.000,364.521 382.000 C 364.311 382.000,364.218 382.540,364.315 383.200 M37.005 387.208 C 37.687 388.311,42.400 389.413,42.400 388.469 C 42.400 388.287,41.860 388.218,41.200 388.315 C 40.449 388.425,40.000 388.315,40.000 388.022 C 40.000 387.764,39.825 387.661,39.612 387.793 C 39.398 387.925,38.658 387.740,37.968 387.383 C 37.235 387.004,36.834 386.931,37.005 387.208 M362.291 387.434 C 361.680 387.765,361.005 387.927,360.791 387.794 C 360.576 387.661,360.400 387.764,360.400 388.022 C 360.400 388.315,359.951 388.425,359.200 388.315 C 358.540 388.218,358.000 388.287,358.000 388.469 C 358.000 389.394,362.709 388.318,363.375 387.241 C 363.718 386.686,363.646 386.699,362.291 387.434 M43.800 388.824 L 42.600 389.105 43.913 389.153 C 44.787 389.184,45.296 389.434,45.438 389.900 C 45.914 391.465,46.880 393.057,47.641 393.533 C 48.373 393.990,48.410 393.965,48.035 393.265 C 47.808 392.841,47.381 392.402,47.087 392.289 C 46.792 392.176,46.333 391.352,46.065 390.458 C 45.491 388.543,45.370 388.456,43.800 388.824 M354.959 388.867 C 354.845 389.050,355.393 389.200,356.176 389.200 C 356.959 389.200,357.600 389.130,357.600 389.045 C 357.600 388.717,355.154 388.551,354.959 388.867 M353.274 389.798 C 353.023 390.349,352.981 390.800,353.182 390.800 C 353.575 390.800,354.184 389.251,353.901 388.968 C 353.807 388.874,353.525 389.247,353.274 389.798 M349.344 393.569 C 347.963 394.411,347.308 395.200,347.989 395.200 C 348.229 395.200,348.522 394.946,348.641 394.636 C 348.761 394.326,349.295 393.963,349.829 393.828 C 350.363 393.694,350.800 393.408,350.800 393.192 C 350.800 392.679,350.805 392.678,349.344 393.569 M50.400 393.686 C 50.950 393.956,51.544 394.407,51.720 394.689 C 51.896 394.970,52.251 395.200,52.509 395.200 C 53.276 395.200,51.484 393.704,50.400 393.440 L 49.400 393.196 50.400 393.686 M53.946 396.220 C 55.409 396.851,57.600 397.000,57.600 396.469 C 57.600 396.287,57.060 396.218,56.400 396.315 C 55.740 396.412,55.200 396.335,55.199 396.145 C 55.199 395.955,54.614 395.764,53.899 395.720 L 52.600 395.640 53.946 396.220 M345.201 396.145 C 345.200 396.335,344.660 396.412,344.000 396.315 C 343.340 396.218,342.800 396.287,342.800 396.469 C 342.800 397.000,344.991 396.851,346.454 396.220 L 347.800 395.640 346.501 395.720 C 345.786 395.764,345.201 395.955,345.201 396.145 M59.600 396.805 C 58.600 397.012,59.277 397.110,61.967 397.147 C 64.038 397.176,65.658 397.135,65.567 397.056 C 65.178 396.718,60.886 396.538,59.600 396.805 M336.400 396.796 C 334.942 397.026,335.316 397.091,338.367 397.140 C 340.438 397.173,342.058 397.133,341.967 397.051 C 341.570 396.697,338.050 396.536,336.400 396.796 M74.977 397.253 C 74.330 397.392,130.665 397.527,200.167 397.553 C 269.668 397.579,326.439 397.506,326.324 397.391 C 326.021 397.088,76.383 396.951,74.977 397.253 " stroke="none" fill="#ffffff" fill-rule="evenodd"></path><path id="path2" d="M197.400 55.828 C 190.101 56.817,187.687 57.609,184.932 59.917 C 183.869 60.807,181.626 62.184,179.947 62.976 C 177.652 64.060,176.253 65.085,174.306 67.109 C 172.881 68.589,170.954 70.487,170.023 71.327 C 168.935 72.309,167.860 73.881,167.017 75.727 C 166.295 77.307,164.962 79.495,164.056 80.588 C 157.961 87.940,157.931 111.993,164.008 119.007 C 164.958 120.103,166.322 122.287,167.039 123.861 C 167.791 125.510,168.967 127.289,169.814 128.061 C 170.622 128.797,172.839 130.936,174.742 132.813 C 177.689 135.722,178.631 136.393,181.115 137.355 C 182.719 137.975,185.059 139.243,186.315 140.172 C 194.094 145.924,214.306 145.924,222.085 140.172 C 223.341 139.243,225.681 137.975,227.285 137.355 C 229.743 136.404,230.708 135.723,233.442 133.013 C 235.225 131.246,237.435 129.122,238.354 128.294 C 239.422 127.332,240.504 125.743,241.351 123.894 C 242.080 122.302,243.362 120.190,244.199 119.200 C 247.696 115.065,248.540 111.292,248.538 99.800 C 248.537 87.956,247.852 84.819,244.344 80.588 C 243.438 79.495,242.105 77.307,241.383 75.727 C 240.540 73.881,239.465 72.309,238.377 71.327 C 237.446 70.487,235.519 68.589,234.094 67.109 C 232.147 65.085,230.748 64.060,228.453 62.976 C 226.774 62.184,224.549 60.822,223.508 59.950 C 219.542 56.629,206.586 54.584,197.400 55.828 M213.795 59.957 C 214.824 60.412,216.218 61.249,216.892 61.816 C 218.693 63.332,222.337 65.069,225.627 65.981 C 228.821 66.866,229.731 67.507,230.819 69.638 C 231.605 71.178,234.111 73.600,234.918 73.600 C 236.317 73.600,238.800 77.775,238.800 80.126 C 238.800 80.782,241.533 85.904,242.946 87.896 C 245.116 90.955,245.379 92.241,245.377 99.800 C 245.375 107.605,245.101 108.896,242.789 111.968 C 240.739 114.693,239.480 117.274,238.092 121.600 C 237.042 124.869,236.927 125.039,235.114 126.017 C 232.628 127.358,231.367 128.585,230.116 130.884 C 228.981 132.968,229.396 132.760,221.200 135.344 C 218.604 136.162,215.492 137.477,214.056 138.362 C 208.864 141.562,199.653 141.574,194.379 138.387 C 191.844 136.855,185.371 134.417,182.341 133.851 C 180.392 133.488,179.049 132.366,177.786 130.045 C 176.808 128.248,176.189 127.724,172.516 125.581 C 171.450 124.959,171.084 124.337,170.358 121.916 C 169.296 118.375,167.261 114.211,165.401 111.775 C 163.359 109.098,163.035 107.474,163.016 99.800 C 162.998 92.151,163.234 91.035,165.597 87.600 C 167.175 85.306,169.600 80.777,169.600 80.123 C 169.600 77.774,172.084 73.600,173.482 73.600 C 174.289 73.600,176.795 71.178,177.581 69.638 C 178.669 67.507,179.579 66.866,182.773 65.981 C 186.005 65.085,189.690 63.342,191.440 61.881 C 195.192 58.749,208.480 57.605,213.795 59.957 M191.600 167.249 C 179.172 168.082,173.766 169.213,168.954 171.986 C 167.209 172.992,164.221 174.141,160.800 175.123 C 154.672 176.882,152.713 177.779,151.000 179.609 C 150.304 180.352,147.736 181.885,144.884 183.260 C 140.865 185.197,139.508 186.088,137.441 188.144 C 136.051 189.528,133.915 191.223,132.694 191.912 C 131.474 192.601,129.873 193.925,129.137 194.855 C 127.432 197.009,125.009 199.432,122.855 201.137 C 121.925 201.873,120.594 203.485,119.898 204.720 C 119.201 205.954,117.536 208.142,116.199 209.582 C 113.237 212.770,112.902 213.293,111.026 217.660 C 110.164 219.666,108.771 222.016,107.707 223.259 C 105.409 225.943,104.759 227.410,103.217 233.400 C 102.441 236.412,101.245 239.690,100.005 242.200 C 96.643 249.007,96.078 252.584,95.735 269.200 C 95.308 289.953,96.319 297.067,100.562 303.148 C 101.273 304.166,102.350 306.197,102.956 307.661 C 104.338 311.003,105.502 312.586,107.748 314.183 C 108.722 314.876,110.006 316.021,110.602 316.729 C 115.332 322.351,134.299 322.258,142.844 316.571 C 144.919 315.190,147.133 314.105,148.950 313.578 C 155.777 311.600,157.857 310.748,160.200 308.972 C 163.211 306.690,163.918 306.392,170.025 304.835 C 173.561 303.932,176.393 302.875,179.814 301.180 C 187.409 297.416,197.224 296.151,211.267 297.124 C 221.210 297.813,223.416 298.384,230.000 301.970 C 231.210 302.630,234.842 303.871,238.072 304.730 C 243.748 306.239,245.413 306.981,249.000 309.603 C 250.546 310.733,253.474 311.846,259.450 313.578 C 261.267 314.105,263.481 315.190,265.556 316.571 C 274.286 322.380,292.595 322.363,298.041 316.540 C 298.833 315.693,300.477 314.152,301.694 313.116 C 303.562 311.526,304.130 310.698,305.344 307.799 C 306.135 305.910,307.509 303.349,308.398 302.107 C 311.930 297.175,312.588 292.695,312.587 273.600 C 312.587 253.607,312.052 249.605,308.395 242.200 C 307.155 239.690,305.959 236.412,305.183 233.400 C 303.641 227.410,302.991 225.943,300.693 223.259 C 299.629 222.016,298.236 219.666,297.374 217.660 C 295.498 213.293,295.163 212.770,292.201 209.582 C 290.864 208.142,289.197 205.982,288.498 204.782 C 286.818 201.898,286.584 201.637,283.921 199.681 C 282.668 198.760,281.099 197.216,280.434 196.249 C 279.019 194.193,277.301 192.672,275.158 191.579 C 274.314 191.148,272.455 189.633,271.027 188.212 C 268.884 186.079,267.575 185.216,263.516 183.260 C 260.664 181.885,258.096 180.352,257.400 179.609 C 255.687 177.779,253.728 176.882,247.600 175.123 C 244.179 174.141,241.191 172.992,239.446 171.986 C 232.144 167.778,212.598 165.842,191.600 167.249 M218.800 170.604 C 223.640 170.875,227.914 172.002,230.462 173.679 C 233.294 175.543,236.191 176.576,241.311 177.547 C 248.944 178.993,251.158 179.828,253.200 182.030 C 254.919 183.884,256.176 184.595,260.559 186.196 C 261.795 186.647,263.566 187.875,265.359 189.524 C 268.374 192.297,271.566 194.526,274.256 195.737 C 275.340 196.224,276.191 197.002,276.772 198.036 C 278.181 200.543,279.463 201.847,281.838 203.187 C 283.738 204.259,284.215 204.777,285.096 206.721 C 286.484 209.787,288.088 212.088,291.018 215.214 C 292.557 216.856,293.716 218.529,294.134 219.714 C 294.500 220.751,295.096 222.440,295.459 223.468 C 295.836 224.537,297.021 226.318,298.231 227.633 C 300.512 230.115,302.011 233.819,302.587 238.400 C 303.169 243.029,304.516 247.891,306.074 250.989 C 310.950 260.683,311.272 287.154,306.598 293.949 C 305.158 296.042,303.161 301.280,302.174 305.552 C 301.404 308.889,301.037 309.360,298.112 310.777 C 296.801 311.412,295.295 312.484,294.764 313.159 C 294.234 313.834,293.404 314.902,292.921 315.531 C 290.520 318.658,278.185 318.261,273.276 314.900 C 269.830 312.541,267.838 311.723,262.800 310.597 C 257.465 309.404,256.353 308.921,253.264 306.452 C 251.029 304.665,247.256 302.800,245.877 302.800 C 243.028 302.800,235.789 300.362,234.262 298.888 C 230.577 295.331,227.522 294.639,212.800 294.025 C 191.207 293.126,178.672 294.643,174.358 298.678 C 172.540 300.378,165.587 302.800,162.523 302.800 C 161.144 302.800,157.371 304.665,155.136 306.452 C 152.047 308.921,150.935 309.404,145.600 310.597 C 140.562 311.723,138.570 312.541,135.124 314.900 C 130.215 318.261,117.880 318.658,115.479 315.531 C 114.996 314.902,114.163 313.831,113.628 313.151 C 113.094 312.471,111.510 311.366,110.107 310.697 C 107.385 309.396,106.700 308.530,106.234 305.800 C 105.572 301.916,103.398 296.306,101.433 293.410 C 97.197 287.169,97.659 260.678,102.165 251.400 C 103.858 247.913,105.233 243.015,105.813 238.400 C 106.389 233.819,107.888 230.115,110.169 227.633 C 111.379 226.318,112.564 224.537,112.941 223.468 C 113.304 222.440,113.901 220.745,114.268 219.700 C 114.679 218.531,115.804 216.877,117.192 215.400 C 120.418 211.968,121.771 210.113,123.186 207.180 C 124.251 204.971,124.788 204.370,126.915 203.000 C 128.723 201.836,129.836 200.725,131.000 198.924 C 132.152 197.142,133.045 196.246,134.191 195.724 C 136.860 194.509,140.057 192.269,143.041 189.524 C 144.834 187.875,146.605 186.647,147.841 186.196 C 152.224 184.595,153.481 183.884,155.200 182.030 C 157.242 179.828,159.456 178.993,167.089 177.547 C 172.209 176.576,175.106 175.543,177.938 173.679 C 182.731 170.524,197.497 169.413,218.800 170.604 " stroke="none" fill="#ffffff" fill-rule="evenodd"></path><path id="path3" d="M69.500 3.882 C 69.995 3.978,70.805 3.978,71.300 3.882 C 71.795 3.787,71.390 3.709,70.400 3.709 C 69.410 3.709,69.005 3.787,69.500 3.882 M328.905 3.887 C 329.514 3.979,330.414 3.977,330.905 3.882 C 331.397 3.787,330.900 3.711,329.800 3.714 C 328.700 3.717,328.297 3.795,328.905 3.887 M193.800 52.792 C 183.978 53.166,182.582 53.607,178.112 57.745 C 175.869 59.822,175.422 60.117,171.741 61.954 C 168.037 63.802,167.705 64.135,165.948 67.765 C 165.212 69.285,163.618 71.644,162.405 73.006 C 158.487 77.406,158.252 77.769,157.602 80.448 C 156.875 83.445,156.438 99.208,156.817 108.800 C 157.281 120.549,157.638 121.800,161.307 124.530 C 162.211 125.203,163.304 126.622,164.038 128.076 C 167.557 135.047,170.582 137.873,176.800 139.998 C 179.248 140.834,179.913 141.247,180.413 142.238 C 182.817 146.999,185.395 147.578,204.200 147.578 C 223.015 147.578,225.602 146.996,227.987 142.227 C 228.487 141.227,229.100 140.840,231.307 140.131 C 237.530 138.135,240.815 135.102,244.359 128.082 C 245.091 126.630,246.192 125.199,247.091 124.526 C 250.737 121.800,251.123 120.449,251.583 108.800 C 251.962 99.208,251.525 83.445,250.798 80.448 C 250.148 77.769,249.913 77.406,245.995 73.006 C 244.782 71.644,243.188 69.285,242.452 67.765 C 240.695 64.135,240.363 63.802,236.659 61.954 C 232.894 60.075,232.765 59.987,229.760 57.249 C 225.008 52.918,216.890 51.912,193.800 52.792 M211.950 54.001 C 221.273 54.518,223.129 55.052,226.000 58.039 C 227.685 59.793,228.855 60.590,231.000 61.446 C 235.226 63.132,240.641 68.476,242.883 73.175 C 244.034 75.585,245.058 77.069,246.408 78.283 C 249.814 81.346,250.492 84.917,250.492 99.800 C 250.492 115.038,249.569 119.407,245.799 122.001 C 244.429 122.943,243.875 123.689,243.198 125.499 C 241.912 128.941,240.995 130.193,238.585 131.792 C 237.383 132.590,236.400 133.388,236.400 133.565 C 236.400 134.523,233.018 137.599,231.293 138.209 C 227.367 139.599,226.469 140.120,225.032 141.840 C 221.902 145.583,218.957 146.200,204.200 146.200 C 189.443 146.200,186.498 145.583,183.368 141.840 C 181.932 140.122,181.029 139.597,177.125 138.216 C 175.374 137.597,172.400 134.950,172.400 134.011 C 172.400 133.799,171.365 132.874,170.100 131.956 C 167.135 129.805,166.632 129.159,165.370 125.893 C 164.517 123.684,164.007 122.968,162.593 121.995 C 158.832 119.408,157.908 115.028,157.908 99.800 C 157.908 84.917,158.586 81.346,161.992 78.283 C 163.342 77.069,164.366 75.585,165.517 73.175 C 167.759 68.476,173.174 63.132,177.400 61.446 C 179.545 60.590,180.715 59.793,182.400 58.039 C 185.189 55.137,187.365 54.462,195.340 54.028 C 203.587 53.579,204.324 53.578,211.950 54.001 M3.714 69.800 C 3.717 70.900,3.795 71.303,3.887 70.695 C 3.979 70.086,3.977 69.186,3.882 68.695 C 3.787 68.203,3.711 68.700,3.714 69.800 M396.514 69.800 C 396.517 70.900,396.595 71.303,396.687 70.695 C 396.779 70.086,396.777 69.186,396.682 68.695 C 396.587 68.203,396.511 68.700,396.514 69.800 M201.400 160.640 C 199.338 161.149,196.452 162.124,195.000 162.802 C 192.609 163.919,189.530 164.318,179.600 164.798 C 166.408 165.436,163.072 166.311,160.018 169.933 C 158.220 172.065,157.163 172.588,153.800 173.006 C 148.114 173.712,144.955 175.209,143.228 178.015 C 141.885 180.198,141.259 180.620,138.161 181.427 C 135.130 182.216,134.149 182.972,133.353 185.132 C 132.406 187.701,131.924 188.166,129.589 188.764 C 127.063 189.412,125.394 190.782,124.782 192.713 C 124.025 195.102,123.304 195.941,121.619 196.395 C 119.024 197.094,117.724 198.498,116.800 201.599 C 115.989 204.323,115.971 204.345,114.025 204.992 C 111.504 205.829,110.223 207.139,109.613 209.504 C 108.727 212.935,108.297 213.652,106.147 215.275 C 103.225 217.481,101.693 220.785,100.988 226.400 C 100.608 229.422,99.935 230.877,98.189 232.454 C 95.573 234.816,94.386 237.289,93.605 242.000 C 92.478 248.801,92.215 287.521,93.221 298.600 C 93.759 304.522,94.115 305.461,96.788 308.000 C 98.630 309.749,99.612 311.203,101.581 315.093 C 103.090 318.075,104.475 320.279,105.128 320.736 C 108.785 323.297,117.243 324.170,132.652 323.577 C 144.469 323.122,146.538 322.548,150.828 318.535 C 153.087 316.422,154.549 315.789,158.404 315.252 C 161.811 314.778,165.546 313.676,166.329 312.915 C 166.619 312.632,167.007 312.400,167.191 312.400 C 167.375 312.400,168.165 311.509,168.947 310.421 C 170.642 308.062,171.078 307.915,179.073 307.015 C 186.706 306.157,189.266 305.286,192.574 302.423 C 195.065 300.266,195.412 300.200,204.200 300.200 C 212.988 300.200,213.335 300.266,215.826 302.423 C 219.134 305.286,221.694 306.157,229.327 307.015 C 237.119 307.892,237.778 308.099,239.235 310.120 C 241.464 313.212,243.989 314.416,249.996 315.252 C 253.851 315.789,255.313 316.422,257.572 318.535 C 261.862 322.548,263.931 323.122,275.748 323.577 C 291.157 324.170,299.615 323.297,303.272 320.736 C 303.925 320.279,305.310 318.075,306.819 315.093 C 308.788 311.203,309.770 309.749,311.612 308.000 C 314.285 305.461,314.641 304.523,315.180 298.600 C 316.190 287.489,315.927 248.852,314.794 242.000 C 314.015 237.291,312.828 234.817,310.211 232.454 C 308.465 230.877,307.792 229.422,307.412 226.400 C 306.707 220.785,305.175 217.481,302.253 215.275 C 300.103 213.652,299.673 212.935,298.787 209.504 C 298.177 207.138,296.896 205.829,294.368 204.990 C 292.469 204.359,292.383 204.262,291.752 202.069 C 290.686 198.361,290.232 197.768,287.464 196.460 C 285.112 195.349,284.849 195.091,284.050 193.128 C 283.081 190.744,281.653 189.559,278.800 188.769 C 276.576 188.154,275.913 187.513,275.042 185.132 C 274.252 182.973,273.271 182.217,270.239 181.427 C 267.141 180.620,266.515 180.198,265.172 178.015 C 263.445 175.209,260.286 173.712,254.600 173.006 C 251.237 172.588,250.180 172.065,248.382 169.933 C 245.328 166.311,241.992 165.436,228.800 164.798 C 218.884 164.319,215.797 163.919,213.400 162.807 C 209.492 160.993,203.991 160.000,201.400 160.640 M210.000 164.807 C 212.750 165.021,218.960 165.472,223.800 165.810 C 237.414 166.760,240.051 167.368,243.422 170.336 C 245.282 171.973,248.650 173.325,253.600 174.421 C 256.561 175.077,258.544 176.128,260.799 178.237 C 262.016 179.376,264.336 180.780,267.347 182.200 C 271.710 184.258,272.097 184.537,273.375 186.534 C 274.855 188.848,275.798 189.616,278.074 190.362 C 279.589 190.858,282.400 193.578,282.400 194.547 C 282.400 195.537,284.017 197.170,285.759 197.941 C 287.980 198.923,289.448 200.536,290.210 202.831 C 290.858 204.780,292.061 206.112,294.481 207.557 C 295.976 208.450,296.206 208.833,299.172 215.377 C 299.894 216.971,301.265 219.037,302.388 220.224 C 304.629 222.594,305.257 223.905,306.215 228.208 C 307.469 233.847,308.275 235.964,309.813 237.667 C 313.093 241.297,313.829 244.894,314.429 260.200 C 315.541 288.551,314.080 302.738,309.745 305.687 C 308.375 306.619,307.686 307.765,306.788 310.600 C 305.802 313.714,300.031 319.724,296.548 321.264 C 293.985 322.398,286.410 322.853,277.782 322.391 C 267.768 321.856,264.119 320.805,261.823 317.794 C 260.643 316.247,259.966 315.966,253.646 314.393 C 248.025 312.995,246.546 312.324,244.000 310.020 C 241.756 307.988,239.402 307.092,233.575 306.047 C 227.683 304.991,224.992 304.045,222.116 302.017 C 215.707 297.497,192.790 297.439,186.405 301.926 C 183.490 303.975,180.562 305.021,174.914 306.032 C 168.943 307.101,166.676 307.969,164.200 310.133 C 161.464 312.524,160.475 312.970,154.761 314.392 C 148.433 315.966,147.758 316.247,146.577 317.794 C 144.281 320.805,140.632 321.856,130.618 322.391 C 121.990 322.853,114.415 322.398,111.852 321.264 C 108.369 319.724,102.598 313.714,101.612 310.600 C 100.714 307.765,100.025 306.619,98.655 305.687 C 94.319 302.738,92.884 288.855,93.972 260.400 C 94.564 244.907,95.294 241.312,98.587 237.667 C 100.125 235.964,100.931 233.847,102.185 228.208 C 103.143 223.905,103.771 222.594,106.012 220.224 C 107.135 219.037,108.506 216.971,109.228 215.377 C 112.194 208.834,112.424 208.450,113.919 207.556 C 116.337 206.110,117.216 205.131,118.371 202.600 C 119.573 199.963,120.036 199.476,122.749 198.000 C 123.759 197.450,124.949 196.409,125.393 195.687 C 125.837 194.965,126.563 193.795,127.006 193.087 C 127.524 192.259,128.808 191.288,130.606 190.366 C 132.904 189.187,133.670 188.528,134.918 186.655 C 136.349 184.509,136.705 184.251,141.077 182.189 C 144.067 180.779,146.387 179.374,147.601 178.237 C 149.856 176.128,151.839 175.077,154.800 174.421 C 159.750 173.325,163.118 171.973,164.978 170.336 C 168.368 167.352,170.930 166.768,185.000 165.772 C 190.060 165.414,195.910 164.984,198.000 164.818 C 203.531 164.379,204.483 164.378,210.000 164.807 M3.720 330.400 C 3.720 331.610,3.795 332.105,3.887 331.500 C 3.978 330.895,3.978 329.905,3.887 329.300 C 3.795 328.695,3.720 329.190,3.720 330.400 M396.514 330.600 C 396.517 331.700,396.595 332.103,396.687 331.495 C 396.779 330.886,396.777 329.986,396.682 329.495 C 396.587 329.003,396.511 329.500,396.514 330.600 M68.905 396.687 C 69.514 396.779,70.414 396.777,70.905 396.682 C 71.397 396.587,70.900 396.511,69.800 396.514 C 68.700 396.517,68.297 396.595,68.905 396.687 M329.705 396.687 C 330.314 396.779,331.214 396.777,331.705 396.682 C 332.197 396.587,331.700 396.511,330.600 396.514 C 329.500 396.517,329.097 396.595,329.705 396.687 " stroke="none" fill="#ffffff" fill-rule="evenodd"></path><path id="path4" d="M65.874 3.286 C 66.858 3.864,63.932 3.949,58.800 3.491 C 57.370 3.363,56.605 3.348,57.100 3.457 C 58.669 3.803,58.069 4.198,55.897 4.249 C 54.367 4.285,54.071 4.214,54.800 3.989 C 55.395 3.805,55.530 3.664,55.133 3.640 C 54.081 3.577,53.180 4.043,53.464 4.504 C 53.607 4.735,53.556 4.820,53.352 4.694 C 51.224 3.379,45.794 6.359,45.158 9.190 C 44.665 11.382,45.009 11.796,45.575 9.694 C 46.232 7.254,48.836 5.219,51.324 5.202 C 52.135 5.197,51.084 5.923,49.953 6.149 C 48.398 6.460,46.805 8.080,45.969 10.200 C 45.573 11.206,45.127 11.745,44.769 11.653 C 43.494 11.322,40.591 11.213,41.600 11.533 C 42.479 11.812,42.372 11.882,40.709 12.116 C 39.670 12.262,38.515 12.266,38.144 12.123 C 37.691 11.949,37.563 12.017,37.755 12.327 C 37.938 12.623,37.832 12.710,37.463 12.569 C 36.841 12.330,35.569 14.418,35.640 15.561 C 35.663 15.930,35.830 15.776,36.034 15.200 C 36.338 14.345,36.361 14.396,36.195 15.550 C 36.088 16.293,35.982 17.283,35.960 17.750 C 35.924 18.521,35.888 18.507,35.570 17.600 C 35.252 16.692,35.231 16.720,35.342 17.908 C 35.502 19.623,34.902 20.088,33.172 19.592 C 31.470 19.104,30.258 19.109,31.400 19.600 C 32.039 19.875,32.066 19.949,31.533 19.972 C 31.166 19.987,30.551 20.121,30.167 20.268 C 29.635 20.472,29.552 20.401,29.817 19.968 C 30.082 19.537,29.930 19.556,29.183 20.048 C 28.642 20.405,28.179 21.086,28.154 21.561 C 28.129 22.036,27.965 22.555,27.790 22.713 C 27.616 22.871,27.586 22.685,27.724 22.300 C 28.033 21.437,27.383 21.397,25.549 22.165 C 23.896 22.858,22.699 24.150,22.000 26.000 C 21.709 26.770,21.166 27.760,20.795 28.200 C 19.744 29.444,19.378 30.184,20.006 29.796 C 20.396 29.555,20.465 29.653,20.268 30.167 C 20.121 30.551,19.987 31.166,19.972 31.533 C 19.949 32.066,19.875 32.039,19.600 31.400 C 19.116 30.273,19.101 31.460,19.579 33.126 C 20.134 35.063,19.796 35.568,18.069 35.375 C 16.912 35.246,16.812 35.279,17.600 35.531 C 18.481 35.812,18.375 35.882,16.709 36.116 C 15.670 36.262,14.515 36.266,14.144 36.123 C 13.691 35.949,13.563 36.017,13.755 36.327 C 13.938 36.623,13.832 36.710,13.463 36.569 C 12.898 36.352,11.565 38.380,11.628 39.361 C 11.644 39.603,11.827 39.440,12.036 39.000 C 12.331 38.378,12.369 38.501,12.208 39.550 C 12.093 40.293,11.982 41.283,11.960 41.750 C 11.924 42.517,11.887 42.502,11.584 41.600 C 11.370 40.961,11.329 41.486,11.471 43.054 L 11.693 45.507 10.154 46.015 C 8.083 46.699,6.567 48.304,5.978 50.437 C 5.710 51.407,5.415 51.988,5.322 51.730 C 4.620 49.776,7.109 46.271,9.694 45.575 C 11.815 45.004,11.372 44.668,9.153 45.165 C 6.733 45.706,5.368 47.314,4.999 50.058 C 4.840 51.236,4.573 52.380,4.404 52.600 C 4.236 52.820,3.974 53.450,3.823 54.000 C 3.601 54.804,3.638 54.883,4.007 54.400 C 4.372 53.925,4.419 54.081,4.234 55.150 C 4.105 55.893,3.982 56.793,3.960 57.150 C 3.936 57.537,3.779 57.395,3.570 56.800 C 3.337 56.132,3.297 56.596,3.451 58.200 C 3.578 59.520,3.862 60.712,4.082 60.849 C 4.342 61.011,4.312 61.417,3.996 62.008 C 3.716 62.531,3.591 63.699,3.702 64.759 C 3.891 66.568,3.885 66.579,3.365 65.400 C 2.645 63.767,2.637 71.707,3.353 75.797 C 3.642 77.445,3.721 79.335,3.546 80.397 C 3.173 82.653,3.159 315.538,3.532 318.000 C 3.682 318.990,3.663 320.880,3.491 322.200 C 2.834 327.239,2.726 336.328,3.340 335.000 C 3.891 333.807,3.893 333.810,3.702 335.641 C 3.596 336.654,3.701 337.842,3.936 338.280 C 4.178 338.732,4.212 339.234,4.015 339.439 C 3.824 339.637,3.568 340.880,3.444 342.200 C 3.294 343.814,3.335 344.272,3.570 343.600 L 3.920 342.600 3.960 343.633 C 3.982 344.202,4.119 344.786,4.265 344.932 C 4.411 345.078,4.585 345.783,4.651 346.498 L 4.772 347.800 4.190 346.600 C 3.703 345.597,3.648 345.564,3.853 346.400 C 3.988 346.950,4.239 347.580,4.412 347.800 C 4.584 348.020,4.856 349.079,5.016 350.153 C 5.477 353.253,9.298 356.175,11.284 354.948 C 11.585 354.762,11.650 355.458,11.498 357.240 C 11.377 358.648,11.363 359.395,11.467 358.900 C 11.571 358.405,11.806 358.000,11.990 358.000 C 12.174 358.000,12.237 358.337,12.129 358.748 C 12.022 359.160,12.115 360.152,12.336 360.953 C 12.569 361.795,12.582 362.313,12.369 362.181 C 12.166 362.055,11.986 361.648,11.968 361.276 C 11.948 360.840,11.864 360.782,11.731 361.113 C 11.497 361.695,13.417 364.400,14.065 364.400 C 14.298 364.400,14.064 364.031,13.544 363.580 L 12.600 362.760 13.912 363.397 C 14.633 363.746,15.398 363.925,15.612 363.793 C 15.825 363.661,16.000 363.764,16.000 364.022 C 16.000 364.315,16.449 364.425,17.200 364.315 C 18.475 364.128,18.882 364.622,17.700 364.922 C 17.315 365.019,17.585 365.043,18.300 364.975 C 19.828 364.828,19.903 365.044,19.431 368.200 C 19.257 369.359,19.295 369.580,19.568 369.000 C 19.929 368.231,19.945 368.235,19.972 369.100 C 19.987 369.595,20.191 370.000,20.424 370.000 C 20.657 370.000,20.734 370.183,20.596 370.407 C 20.458 370.630,20.149 370.692,19.911 370.545 C 19.352 370.200,19.867 371.118,20.840 372.205 C 21.237 372.648,21.825 373.638,22.146 374.405 C 23.175 376.861,26.828 379.231,27.631 377.964 C 27.989 377.399,28.213 377.953,28.031 378.950 C 27.949 379.395,29.206 380.800,29.686 380.800 C 29.884 380.800,29.917 380.589,29.758 380.332 C 29.561 380.013,29.691 379.949,30.167 380.132 C 30.551 380.279,31.076 380.403,31.333 380.406 C 31.607 380.410,31.552 380.585,31.200 380.830 C 30.759 381.138,30.970 381.176,32.000 380.976 C 32.770 380.826,33.453 380.565,33.518 380.397 C 33.868 379.491,35.514 381.050,35.411 382.191 C 35.350 382.856,35.381 383.085,35.478 382.700 C 35.576 382.315,35.806 382.000,35.990 382.000 C 36.174 382.000,36.237 382.337,36.129 382.748 C 36.022 383.160,36.115 384.152,36.336 384.953 C 36.569 385.795,36.582 386.313,36.369 386.181 C 36.166 386.055,35.986 385.648,35.968 385.276 C 35.948 384.840,35.864 384.782,35.731 385.113 C 35.497 385.695,37.417 388.400,38.065 388.400 C 38.298 388.400,38.064 388.031,37.544 387.580 L 36.600 386.760 37.912 387.397 C 38.633 387.746,39.398 387.925,39.612 387.793 C 39.825 387.661,40.000 387.764,40.000 388.022 C 40.000 388.315,40.449 388.425,41.200 388.315 C 42.474 388.128,42.884 388.624,41.700 388.919 C 41.315 389.015,41.810 389.010,42.800 388.908 C 43.790 388.805,44.713 388.540,44.850 388.317 C 44.988 388.095,45.428 388.788,45.828 389.857 C 46.228 390.926,46.970 392.196,47.478 392.681 C 48.606 393.758,48.676 394.179,47.617 393.518 C 46.869 393.050,45.919 391.465,45.416 389.843 C 44.997 388.492,44.834 389.377,45.201 391.011 C 45.685 393.168,47.380 394.617,49.847 394.982 C 50.921 395.141,52.070 395.504,52.400 395.788 C 52.730 396.073,53.450 396.415,54.000 396.549 C 54.831 396.751,54.797 396.695,53.800 396.219 L 52.600 395.645 53.899 395.723 C 54.614 395.765,55.199 395.955,55.199 396.145 C 55.200 396.335,55.740 396.412,56.400 396.315 C 57.060 396.218,57.600 396.287,57.600 396.469 C 57.600 396.651,57.210 396.800,56.733 396.800 C 56.257 396.800,55.972 396.905,56.100 397.033 C 56.577 397.510,60.800 396.721,60.800 396.154 C 60.800 395.429,61.111 395.454,61.901 396.244 C 62.382 396.725,63.048 396.840,64.534 396.697 C 66.392 396.518,66.460 396.543,65.562 397.066 C 64.713 397.561,65.258 397.606,70.200 397.452 C 77.512 397.222,322.888 397.222,330.200 397.452 C 335.142 397.606,335.687 397.561,334.838 397.066 C 333.940 396.543,334.008 396.518,335.866 396.697 C 337.358 396.840,338.017 396.726,338.505 396.238 C 339.054 395.689,339.204 395.676,339.477 396.156 C 339.674 396.501,340.736 396.806,342.200 396.936 C 343.520 397.053,344.195 397.058,343.700 396.947 C 342.358 396.645,342.612 396.111,344.000 396.315 C 344.660 396.412,345.200 396.335,345.201 396.145 C 345.201 395.955,345.786 395.765,346.501 395.723 L 347.800 395.645 346.600 396.219 C 345.603 396.695,345.569 396.751,346.400 396.549 C 346.950 396.415,347.675 396.065,348.010 395.772 C 348.346 395.478,349.426 395.110,350.410 394.954 C 352.477 394.627,354.772 392.653,354.846 391.140 C 354.965 388.685,355.600 386.115,355.600 388.088 C 355.600 388.713,359.000 389.533,359.503 389.030 C 359.630 388.904,359.343 388.800,358.867 388.800 C 358.390 388.800,358.000 388.651,358.000 388.469 C 358.000 388.287,358.540 388.218,359.200 388.315 C 359.951 388.425,360.400 388.315,360.400 388.022 C 360.400 387.764,360.575 387.661,360.788 387.793 C 361.002 387.925,361.767 387.746,362.488 387.397 L 363.800 386.760 362.856 387.580 C 362.336 388.031,362.102 388.400,362.335 388.400 C 362.983 388.400,364.903 385.695,364.669 385.113 C 364.536 384.782,364.452 384.840,364.432 385.276 C 364.381 386.350,363.800 386.429,363.800 385.362 C 363.800 384.833,363.955 384.400,364.145 384.400 C 364.335 384.400,364.412 383.860,364.315 383.200 C 364.128 381.925,364.622 381.518,364.922 382.700 C 365.019 383.085,365.050 382.856,364.989 382.191 C 364.886 381.050,366.532 379.491,366.882 380.397 C 366.947 380.565,367.630 380.826,368.400 380.976 C 369.430 381.176,369.641 381.138,369.200 380.830 C 368.848 380.585,368.793 380.410,369.067 380.406 C 369.324 380.403,369.849 380.279,370.233 380.132 C 370.709 379.949,370.839 380.013,370.642 380.332 C 370.483 380.589,370.516 380.800,370.714 380.800 C 371.194 380.800,372.451 379.395,372.369 378.950 C 372.200 378.023,372.416 377.406,372.735 377.909 C 373.501 379.115,376.882 376.723,377.953 374.217 C 378.231 373.567,378.804 372.793,379.226 372.497 C 380.035 371.930,381.206 370.102,380.468 370.558 C 380.241 370.698,379.942 370.630,379.804 370.407 C 379.666 370.183,379.764 370.000,380.023 370.000 C 380.296 370.000,380.406 369.665,380.284 369.200 C 380.027 368.218,380.657 368.124,380.955 369.100 C 381.073 369.485,381.070 369.080,380.949 368.200 C 380.512 365.015,380.579 364.829,382.100 364.975 C 382.815 365.043,383.085 365.019,382.700 364.922 C 381.518 364.622,381.925 364.128,383.200 364.315 C 383.951 364.425,384.400 364.315,384.400 364.022 C 384.400 363.764,384.575 363.661,384.788 363.793 C 385.002 363.925,385.767 363.746,386.488 363.397 L 387.800 362.760 386.856 363.580 C 386.336 364.031,386.102 364.400,386.335 364.400 C 386.983 364.400,388.903 361.695,388.669 361.113 C 388.536 360.782,388.452 360.840,388.432 361.276 C 388.381 362.350,387.800 362.429,387.800 361.362 C 387.800 360.833,387.955 360.400,388.145 360.400 C 388.335 360.400,388.412 359.860,388.315 359.200 C 388.111 357.814,388.649 357.555,388.938 358.900 C 389.044 359.395,389.039 358.788,388.926 357.551 L 388.721 355.303 390.625 355.017 C 393.206 354.630,394.638 353.177,395.015 350.565 C 395.170 349.484,395.525 348.330,395.802 348.000 C 396.079 347.670,396.415 346.950,396.549 346.400 C 396.722 345.687,396.620 345.774,396.195 346.700 C 395.866 347.415,395.373 347.986,395.099 347.968 C 394.711 347.944,394.709 347.893,395.091 347.738 C 395.360 347.629,395.807 346.447,396.083 345.112 C 396.499 343.096,396.634 342.847,396.882 343.642 C 397.045 344.169,397.077 343.520,396.951 342.200 C 396.808 340.700,396.501 339.674,396.133 339.465 C 395.627 339.176,395.642 339.058,396.235 338.624 C 396.790 338.218,396.875 337.756,396.670 336.260 C 396.395 334.254,396.608 333.859,397.188 335.300 C 397.744 336.684,397.628 327.923,397.047 324.603 C 396.758 322.955,396.679 321.065,396.854 320.003 C 397.244 317.647,397.244 82.753,396.854 80.397 C 396.679 79.335,396.758 77.445,397.047 75.797 C 397.628 72.477,397.744 63.716,397.188 65.100 C 396.607 66.545,396.420 66.148,396.674 64.008 C 396.865 62.390,396.787 61.970,396.255 61.766 C 395.462 61.461,395.387 60.800,396.146 60.800 C 396.492 60.800,396.784 60.121,396.946 58.944 C 397.275 56.538,397.207 55.529,396.800 56.800 L 396.480 57.800 396.440 56.767 C 396.418 56.198,396.281 55.614,396.135 55.468 C 395.989 55.322,395.815 54.617,395.749 53.902 L 395.628 52.600 396.210 53.800 C 396.698 54.806,396.753 54.838,396.549 54.000 C 396.415 53.450,396.073 52.730,395.788 52.400 C 395.504 52.070,395.141 50.921,394.982 49.847 C 394.617 47.380,393.168 45.685,391.011 45.201 C 389.377 44.834,388.492 44.997,389.843 45.416 C 391.481 45.924,393.052 46.872,393.533 47.641 C 393.990 48.373,393.965 48.410,393.265 48.035 C 392.841 47.808,392.402 47.381,392.289 47.087 C 392.176 46.792,391.323 46.324,390.393 46.045 L 388.704 45.539 388.913 43.069 C 389.028 41.711,389.037 41.005,388.933 41.500 C 388.651 42.847,388.111 42.586,388.315 41.200 C 388.412 40.540,388.335 40.000,388.145 40.000 C 387.955 40.000,387.800 39.567,387.800 39.038 C 387.800 37.971,388.381 38.050,388.432 39.124 C 388.452 39.560,388.536 39.618,388.669 39.287 C 388.903 38.705,386.983 36.000,386.335 36.000 C 386.102 36.000,386.336 36.371,386.856 36.824 L 387.800 37.647 386.693 36.973 C 386.084 36.602,384.780 36.276,383.795 36.249 C 381.982 36.199,381.419 35.803,382.700 35.478 C 383.085 35.381,382.848 35.351,382.173 35.413 C 381.008 35.520,379.483 34.256,380.381 33.929 C 380.575 33.858,380.831 33.080,380.951 32.200 C 381.071 31.320,381.073 30.915,380.955 31.300 C 380.657 32.276,380.027 32.182,380.284 31.200 C 380.406 30.735,380.296 30.400,380.023 30.400 C 379.764 30.400,379.666 30.217,379.804 29.993 C 379.942 29.770,380.241 29.702,380.468 29.842 C 381.165 30.273,380.060 28.489,379.277 27.921 C 378.882 27.634,378.315 26.770,378.015 26.000 C 377.292 24.141,376.096 22.854,374.451 22.165 C 372.693 21.428,372.375 21.452,372.662 22.300 C 372.794 22.691,372.578 22.558,372.172 22.000 C 371.773 21.450,371.256 20.868,371.023 20.706 C 370.739 20.509,370.758 20.410,371.080 20.406 C 371.344 20.403,371.760 20.715,372.003 21.100 C 372.252 21.492,372.383 21.551,372.301 21.234 C 372.221 20.923,371.724 20.383,371.195 20.034 C 370.667 19.685,370.364 19.613,370.524 19.872 C 370.683 20.132,370.630 20.458,370.407 20.596 C 370.183 20.734,370.000 20.657,370.000 20.424 C 370.000 20.191,369.595 19.987,369.100 19.972 C 368.241 19.945,368.237 19.928,369.000 19.600 C 370.142 19.109,368.930 19.104,367.228 19.592 C 365.559 20.071,364.907 19.633,365.015 18.108 C 365.059 17.498,365.016 17.315,364.919 17.700 C 364.823 18.085,364.594 18.400,364.410 18.400 C 364.226 18.400,364.163 18.063,364.271 17.652 C 364.378 17.240,364.285 16.248,364.064 15.447 C 363.831 14.605,363.818 14.087,364.031 14.219 C 364.234 14.345,364.421 14.842,364.446 15.324 C 364.484 16.029,364.529 16.059,364.679 15.481 C 364.878 14.715,363.050 12.000,362.335 12.000 C 362.102 12.000,362.336 12.371,362.856 12.824 L 363.800 13.647 362.693 12.973 C 362.084 12.602,360.780 12.276,359.795 12.249 C 357.881 12.197,357.422 11.787,358.900 11.451 C 359.395 11.338,358.990 11.304,358.000 11.376 C 357.010 11.447,355.941 11.571,355.625 11.653 C 355.279 11.741,355.028 11.482,354.993 11.000 C 354.962 10.560,354.906 9.687,354.868 9.060 C 354.760 7.252,352.599 5.380,350.205 5.022 C 349.108 4.857,347.722 4.470,347.125 4.161 C 346.528 3.853,345.716 3.616,345.320 3.636 C 344.924 3.656,345.150 3.832,345.822 4.027 C 346.494 4.223,347.484 4.873,348.022 5.472 L 349.000 6.562 347.714 5.518 C 346.428 4.475,343.596 3.708,342.815 4.191 C 342.587 4.332,342.400 4.269,342.400 4.051 C 342.400 3.834,342.805 3.566,343.300 3.457 C 343.795 3.348,343.030 3.363,341.600 3.491 C 336.451 3.951,333.543 3.865,334.526 3.282 C 335.259 2.847,334.397 2.795,329.200 2.958 C 321.461 3.201,77.790 3.192,70.400 2.949 C 65.871 2.800,65.141 2.855,65.874 3.286 M71.300 3.882 C 70.805 3.978,69.995 3.978,69.500 3.882 C 69.005 3.787,69.410 3.709,70.400 3.709 C 71.390 3.709,71.795 3.787,71.300 3.882 M330.905 3.882 C 330.414 3.977,329.514 3.979,328.905 3.887 C 328.297 3.795,328.700 3.717,329.800 3.714 C 330.900 3.711,331.397 3.787,330.905 3.882 M352.033 6.301 C 353.323 7.041,354.499 8.695,353.265 8.035 C 352.841 7.808,352.392 7.357,352.268 7.033 C 352.144 6.709,351.401 6.324,350.617 6.177 C 349.833 6.030,349.088 5.743,348.962 5.539 C 348.653 5.038,350.729 5.553,352.033 6.301 M27.200 22.951 C 27.200 23.255,26.643 23.733,25.963 24.015 C 25.240 24.315,24.462 25.082,24.089 25.864 C 23.739 26.599,23.295 27.200,23.102 27.200 C 22.910 27.200,22.832 27.335,22.929 27.500 C 23.026 27.665,22.460 28.111,21.669 28.490 L 20.233 29.181 21.349 28.090 C 21.962 27.491,22.859 26.374,23.342 25.610 C 23.824 24.845,24.826 23.810,25.569 23.310 C 27.153 22.242,27.200 22.232,27.200 22.951 M375.184 23.848 C 376.459 24.921,377.887 27.200,377.284 27.200 C 377.099 27.200,376.661 26.599,376.311 25.864 C 375.938 25.082,375.160 24.315,374.437 24.015 C 373.757 23.733,373.200 23.345,373.200 23.151 C 373.200 22.527,373.910 22.776,375.184 23.848 M379.111 28.223 C 379.600 28.565,379.986 29.060,379.968 29.323 C 379.946 29.666,379.880 29.659,379.734 29.298 C 379.623 29.021,379.322 28.915,379.066 29.062 C 378.810 29.208,378.739 29.175,378.909 28.988 C 379.080 28.801,378.720 28.427,378.109 28.156 C 377.499 27.886,377.275 27.650,377.611 27.632 C 377.947 27.615,378.622 27.880,379.111 28.223 M221.148 53.232 C 224.953 53.714,226.855 54.601,229.760 57.249 C 232.765 59.987,232.894 60.075,236.659 61.954 C 240.363 63.802,240.695 64.135,242.452 67.765 C 243.188 69.285,244.782 71.644,245.995 73.006 C 249.913 77.406,250.148 77.769,250.798 80.448 C 251.525 83.445,251.962 99.208,251.583 108.800 C 251.123 120.449,250.737 121.800,247.091 124.526 C 246.192 125.199,245.091 126.630,244.359 128.082 C 240.815 135.102,237.530 138.135,231.307 140.131 C 229.100 140.840,228.487 141.227,227.987 142.227 C 225.602 146.996,223.015 147.578,204.200 147.578 C 185.395 147.578,182.817 146.999,180.413 142.238 C 179.913 141.247,179.248 140.834,176.800 139.998 C 170.582 137.873,167.557 135.047,164.038 128.076 C 163.304 126.622,162.211 125.203,161.307 124.530 C 157.638 121.800,157.281 120.549,156.817 108.800 C 156.438 99.208,156.875 83.445,157.602 80.448 C 158.252 77.769,158.487 77.406,162.405 73.006 C 163.618 71.644,165.212 69.285,165.948 67.765 C 167.705 64.135,168.037 63.802,171.741 61.954 C 175.422 60.117,175.869 59.822,178.112 57.745 C 182.582 53.607,183.978 53.166,193.800 52.792 C 202.313 52.467,216.982 52.703,221.148 53.232 M3.887 70.695 C 3.795 71.303,3.717 70.900,3.714 69.800 C 3.711 68.700,3.787 68.203,3.882 68.695 C 3.977 69.186,3.979 70.086,3.887 70.695 M396.687 70.695 C 396.595 71.303,396.517 70.900,396.514 69.800 C 396.511 68.700,396.587 68.203,396.682 68.695 C 396.777 69.186,396.779 70.086,396.687 70.695 M209.800 161.398 C 210.900 161.765,212.520 162.399,213.400 162.807 C 215.797 163.919,218.884 164.319,228.800 164.798 C 241.992 165.436,245.328 166.311,248.382 169.933 C 250.180 172.065,251.237 172.588,254.600 173.006 C 260.286 173.712,263.445 175.209,265.172 178.015 C 266.515 180.198,267.141 180.620,270.239 181.427 C 273.271 182.217,274.252 182.973,275.042 185.132 C 275.913 187.513,276.576 188.154,278.800 188.769 C 281.653 189.559,283.081 190.744,284.050 193.128 C 284.849 195.091,285.112 195.349,287.464 196.460 C 290.232 197.768,290.686 198.361,291.752 202.069 C 292.383 204.262,292.469 204.359,294.368 204.990 C 296.896 205.829,298.177 207.138,298.787 209.504 C 299.673 212.935,300.103 213.652,302.253 215.275 C 305.175 217.481,306.707 220.785,307.412 226.400 C 307.792 229.422,308.465 230.877,310.211 232.454 C 312.828 234.817,314.015 237.291,314.794 242.000 C 315.927 248.852,316.190 287.489,315.180 298.600 C 314.641 304.523,314.285 305.461,311.612 308.000 C 309.770 309.749,308.788 311.203,306.819 315.093 C 305.310 318.075,303.925 320.279,303.272 320.736 C 299.615 323.297,291.157 324.170,275.748 323.577 C 263.931 323.122,261.862 322.548,257.572 318.535 C 255.313 316.422,253.851 315.789,249.996 315.252 C 243.989 314.416,241.464 313.212,239.235 310.120 C 237.778 308.099,237.119 307.892,229.327 307.015 C 221.694 306.157,219.134 305.286,215.826 302.423 C 213.335 300.266,212.988 300.200,204.200 300.200 C 195.412 300.200,195.065 300.266,192.574 302.423 C 189.266 305.286,186.706 306.157,179.073 307.015 C 171.078 307.915,170.642 308.062,168.947 310.421 C 168.165 311.509,167.375 312.400,167.191 312.400 C 167.007 312.400,166.619 312.632,166.329 312.915 C 165.546 313.676,161.811 314.778,158.404 315.252 C 154.549 315.789,153.087 316.422,150.828 318.535 C 146.538 322.548,144.469 323.122,132.652 323.577 C 117.243 324.170,108.785 323.297,105.128 320.736 C 104.475 320.279,103.090 318.075,101.581 315.093 C 99.612 311.203,98.630 309.749,96.788 308.000 C 94.115 305.461,93.759 304.522,93.221 298.600 C 92.215 287.521,92.478 248.801,93.605 242.000 C 94.386 237.289,95.573 234.816,98.189 232.454 C 99.935 230.877,100.608 229.422,100.988 226.400 C 101.693 220.785,103.225 217.481,106.147 215.275 C 108.297 213.652,108.727 212.935,109.613 209.504 C 110.223 207.139,111.504 205.829,114.025 204.992 C 115.971 204.345,115.989 204.323,116.800 201.599 C 117.724 198.498,119.024 197.094,121.619 196.395 C 123.304 195.941,124.025 195.102,124.782 192.713 C 125.394 190.782,127.063 189.412,129.589 188.764 C 131.924 188.166,132.406 187.701,133.353 185.132 C 134.149 182.972,135.130 182.216,138.161 181.427 C 141.259 180.620,141.885 180.198,143.228 178.015 C 144.955 175.209,148.114 173.712,153.800 173.006 C 157.163 172.588,158.220 172.065,160.018 169.933 C 163.072 166.311,166.408 165.436,179.600 164.798 C 189.530 164.318,192.609 163.919,195.000 162.802 C 196.452 162.124,199.338 161.149,201.400 160.640 C 202.861 160.279,207.771 160.722,209.800 161.398 M3.887 331.500 C 3.795 332.105,3.720 331.610,3.720 330.400 C 3.720 329.190,3.795 328.695,3.887 329.300 C 3.978 329.905,3.978 330.895,3.887 331.500 M396.687 331.495 C 396.595 332.103,396.517 331.700,396.514 330.600 C 396.511 329.500,396.587 329.003,396.682 329.495 C 396.777 329.986,396.779 330.886,396.687 331.495 M5.856 349.149 C 6.031 350.748,6.702 352.400,7.176 352.400 C 7.394 352.400,7.769 352.768,8.010 353.218 C 8.709 354.525,7.059 353.347,6.235 351.951 C 5.616 350.904,4.962 347.229,5.488 347.754 C 5.621 347.888,5.787 348.516,5.856 349.149 M394.766 350.600 C 394.778 350.820,394.630 350.751,394.438 350.447 C 394.163 350.014,394.028 350.081,393.813 350.760 C 393.662 351.236,393.108 352.056,392.582 352.582 C 392.056 353.108,391.236 353.662,390.760 353.813 C 390.065 354.033,390.004 354.165,390.447 354.481 C 390.869 354.782,390.827 354.819,390.267 354.638 C 389.864 354.507,389.324 354.392,389.067 354.381 C 388.810 354.371,389.460 353.915,390.512 353.368 C 391.956 352.616,392.638 351.931,393.300 350.568 C 394.134 348.851,394.670 348.863,394.766 350.600 M21.731 372.000 C 22.324 372.000,23.343 373.144,24.161 374.725 C 24.492 375.364,25.311 376.115,25.981 376.392 C 26.652 376.670,27.200 377.060,27.200 377.259 C 27.200 377.921,24.890 376.437,23.938 375.164 C 23.422 374.473,22.415 373.331,21.700 372.626 C 20.985 371.920,20.405 371.176,20.412 370.972 C 20.419 370.767,20.608 370.915,20.832 371.300 C 21.056 371.685,21.461 372.000,21.731 372.000 M379.256 372.034 C 378.135 372.943,377.539 373.023,377.846 372.225 C 377.973 371.894,378.335 371.754,378.699 371.893 C 379.151 372.067,379.238 371.985,379.004 371.606 C 378.786 371.254,378.831 371.172,379.138 371.362 C 379.392 371.519,379.600 371.427,379.600 371.157 C 379.600 370.887,379.735 370.802,379.900 370.968 C 380.065 371.133,379.775 371.613,379.256 372.034 M375.600 373.382 C 375.600 373.732,373.513 375.647,373.331 375.464 C 373.120 375.254,374.846 373.306,375.300 373.242 C 375.465 373.219,375.600 373.282,375.600 373.382 M353.810 389.970 C 353.665 390.426,353.382 390.800,353.182 390.800 C 352.981 390.800,353.023 390.349,353.274 389.798 C 353.806 388.630,354.195 388.755,353.810 389.970 M350.800 393.192 C 350.800 393.408,350.363 393.694,349.829 393.828 C 349.295 393.963,348.761 394.326,348.641 394.636 C 348.522 394.946,348.229 395.200,347.989 395.200 C 347.308 395.200,347.963 394.411,349.344 393.569 C 350.805 392.678,350.800 392.679,350.800 393.192 M52.189 394.442 C 52.623 394.859,52.767 395.200,52.509 395.200 C 52.251 395.200,51.896 394.970,51.720 394.689 C 51.544 394.407,50.950 393.956,50.400 393.686 L 49.400 393.196 50.400 393.440 C 50.950 393.574,51.755 394.025,52.189 394.442 M70.905 396.682 C 70.414 396.777,69.514 396.779,68.905 396.687 C 68.297 396.595,68.700 396.517,69.800 396.514 C 70.900 396.511,71.397 396.587,70.905 396.682 M331.705 396.682 C 331.214 396.777,330.314 396.779,329.705 396.687 C 329.097 396.595,329.500 396.517,330.600 396.514 C 331.700 396.511,332.197 396.587,331.705 396.682 " stroke="none" fill="#2ca4ac" fill-rule="evenodd"></path></g></svg>